HIERARCHY
ROOT hip
{
  OFFSET 0 0 0
  CHANNELS 6 Xposition Yposition Zposition Zrotation Yrotation Xrotation
  JOINT abdomen
  {
    OFFSET 0 20.6881 -0.73152
    CHANNELS 3 Zrotation Xrotation Yrotation
    JOINT chest
    {
      OFFSET 0 11.7043 -0.48768
      CHANNELS 3 Zrotation Xrotation Yrotation
      JOINT neck
      {
        OFFSET 0 22.1894 -2.19456
        CHANNELS 3 Zrotation Xrotation Yrotation
        JOINT head
        {
          OFFSET -0.24384 7.07133 1.2192
          CHANNELS 3 Zrotation Xrotation Yrotation
          JOINT leftEye
          {
            OFFSET 4.14528 8.04674 8.04672
            CHANNELS 3 Zrotation Xrotation Yrotation
            End Site
            {
              OFFSET 1 0 0
            }
          }
          JOINT rightEye
          {
            OFFSET -3.6576 8.04674 8.04672
            CHANNELS 3 Zrotation Xrotation Yrotation
            End Site
            {
              OFFSET 1 0 0
            }
          }
        }
      }
      JOINT rCollar
      {
        OFFSET -2.68224 19.2634 -4.8768
        CHANNELS 3 Zrotation Xrotation Yrotation
        JOINT rShldr
        {
          OFFSET -8.77824 -1.95073 1.46304
          CHANNELS 3 Zrotation Xrotation Yrotation
          JOINT rForeArm
          {
            OFFSET -28.1742 -1.7115 0.48768
            CHANNELS 3 Zrotation Xrotation Yrotation
            JOINT rHand
            {
              OFFSET -22.5879 0.773209 7.07136
              CHANNELS 3 Zrotation Xrotation Yrotation
              JOINT rThumb1
              {
                OFFSET -1.2192 -0.487915 3.41376
                CHANNELS 3 Zrotation Xrotation Yrotation
                JOINT rThumb2
                {
                  OFFSET -3.37035 -0.52449 3.41376
                  CHANNELS 3 Zrotation Xrotation Yrotation
                  End Site
                  {
                    OFFSET -1.78271 -1.18214 1.43049
                  }
                }
              }
              JOINT rIndex1
              {
                OFFSET -7.75947 0.938293 5.60832
                CHANNELS 3 Zrotation Xrotation Yrotation
                JOINT rIndex2
                {
                  OFFSET -2.54057 -0.884171 1.56538
                  CHANNELS 3 Zrotation Xrotation Yrotation
                  End Site
                  {
                    OFFSET -1.62519 -0.234802 1.16502
                  }
                }
              }
              JOINT rMid1
              {
                OFFSET -8.24714 1.18213 3.41376
                CHANNELS 3 Zrotation Xrotation Yrotation
                JOINT rMid2
                {
                  OFFSET -3.10165 -0.590103 1.0647
                  CHANNELS 3 Zrotation Xrotation Yrotation
                  End Site
                  {
                    OFFSET -2.48547 -0.328903 0.83742
                  }
                }
              }
              JOINT rRing1
              {
                OFFSET -8.82822 0.546677 1.51678
                CHANNELS 3 Zrotation Xrotation Yrotation
                JOINT rRing2
                {
                  OFFSET -2.60934 -0.819778 -0.0198488
                  CHANNELS 3 Zrotation Xrotation Yrotation
                  End Site
                  {
                    OFFSET -2.33842 -0.294052 0.168128
                  }
                }
              }
              JOINT rPinky1
              {
                OFFSET -8.27202 -0.0477905 -0.4584
                CHANNELS 3 Zrotation Xrotation Yrotation
                JOINT rPinky2
                {
                  OFFSET -1.82734 -0.647385 -0.700984
                  CHANNELS 3 Zrotation Xrotation Yrotation
                  End Site
                  {
                    OFFSET -1.69225 -0.51767 -0.607171
                  }
                }
              }
            }
          }
        }
      }
      JOINT lCollar
      {
        OFFSET 2.68224 19.2634 -4.8768
        CHANNELS 3 Zrotation Xrotation Yrotation
        JOINT lShldr
        {
          OFFSET 8.77824 -1.95073 1.46304
          CHANNELS 3 Zrotation Xrotation Yrotation
          JOINT lForeArm
          {
            OFFSET 28.1742 -1.7115 0.48768
            CHANNELS 3 Zrotation Xrotation Yrotation
            JOINT lHand
            {
              OFFSET 22.5879 0.773209 7.07136
              CHANNELS 3 Zrotation Xrotation Yrotation
              JOINT lThumb1
              {
                OFFSET 1.2192 -0.487915 3.41376
                CHANNELS 3 Zrotation Xrotation Yrotation
                JOINT lThumb2
                {
                  OFFSET 3.37035 -0.52449 3.41376
                  CHANNELS 3 Zrotation Xrotation Yrotation
                  End Site
                  {
                    OFFSET 1.78271 -1.18214 1.43049
                  }
                }
              }
              JOINT lIndex1
              {
                OFFSET 7.75947 0.938293 5.60832
                CHANNELS 3 Zrotation Xrotation Yrotation
                JOINT lIndex2
                {
                  OFFSET 2.54057 -0.884171 1.56538
                  CHANNELS 3 Zrotation Xrotation Yrotation
                  End Site
                  {
                    OFFSET 1.62519 -0.234802 1.16502
                  }
                }
              }
              JOINT lMid1
              {
                OFFSET 8.24714 1.18213 3.41376
                CHANNELS 3 Zrotation Xrotation Yrotation
                JOINT lMid2
                {
                  OFFSET 3.10165 -0.590103 1.0647
                  CHANNELS 3 Zrotation Xrotation Yrotation
                  End Site
                  {
                    OFFSET 2.48547 -0.328903 0.83742
                  }
                }
              }
              JOINT lRing1
              {
                OFFSET 8.82822 0.546677 1.51678
                CHANNELS 3 Zrotation Xrotation Yrotation
                JOINT lRing2
                {
                  OFFSET 2.60934 -0.819778 -0.0198488
                  CHANNELS 3 Zrotation Xrotation Yrotation
                  End Site
                  {
                    OFFSET 2.33842 -0.294052 0.168128
                  }
                }
              }
              JOINT lPinky1
              {
                OFFSET 8.27202 -0.0477905 -0.4584
                CHANNELS 3 Zrotation Xrotation Yrotation
                JOINT lPinky2
                {
                  OFFSET 1.82734 -0.647385 -0.700984
                  CHANNELS 3 Zrotation Xrotation Yrotation
                  End Site
                  {
                    OFFSET 1.69225 -0.51767 -0.607171
                  }
                }
              }
            }
          }
        }
      }
    }
  }
  JOINT rButtock
  {
    OFFSET -8.77824 4.35084 1.2192
    CHANNELS 3 Zrotation Xrotation Yrotation
    JOINT rThigh
    {
      OFFSET 0 -1.70687 -2.19456
      CHANNELS 3 Zrotation Xrotation Yrotation
      JOINT rShin
      {
        OFFSET 0 -36.8199 0.73152
        CHANNELS 3 Zrotation Xrotation Yrotation
        JOINT rFoot
        {
          OFFSET 0.73152 -45.1104 -5.12064
          CHANNELS 3 Zrotation Xrotation Yrotation
          End Site
          {
            OFFSET -1.1221 -3.69964 12.103
          }
        }
      }
    }
  }
  JOINT lButtock
  {
    OFFSET 8.77824 4.35084 1.2192
    CHANNELS 3 Zrotation Xrotation Yrotation
    JOINT lThigh
    {
      OFFSET 0 -1.70687 -2.19456
      CHANNELS 3 Zrotation Xrotation Yrotation
      JOINT lShin
      {
        OFFSET 0 -36.8199 0.73152
        CHANNELS 3 Zrotation Xrotation Yrotation
        JOINT lFoot
        {
          OFFSET -0.73152 -45.1104 -5.12064
          CHANNELS 3 Zrotation Xrotation Yrotation
          End Site
          {
            OFFSET 1.1221 -3.69964 12.103
          }
        }
      }
    }
  }
}
MOTION
Frames:	4
Frame Time:	0.00833333
60.3082 85.5591 18.2295 4.0917 6.131 -0.4247 -3.42409 3.93875 -2.47221 2.74164 -8.07603 -0.494271 -5.04644 8.20228 -2.6997 5.69367 -19.52 -3.68179 -0.0 0.0 0.0 -0.0 0.0 0.0 -2.12074e-14 4.51826e-14 4.41069e-14 82.4582 24.5906 -14.8107 -13.7082 -6.72125 24.9691 -0.433886 18.3936 2.67869 2.39001e-10 9.74462e-11 -3.02449e-10 4.08774e-10 1.74486e-10 -5.27777e-10 2.39002e-10 9.74478e-11 -3.02458e-10 7.73091 5.47488 0.417314 2.38994e-10 9.74565e-11 -3.02448e-10 2.90554 0.965183 0.102902 2.39006e-10 9.74476e-11 -3.02447e-10 10.2786 0.731801 0.0259123 2.38994e-10 9.74489e-11 -3.02439e-10 2.22167 -0.733487 -0.20892 -2.14104e-14 4.51773e-14 4.36293e-14 -78.252 30.6647 -6.49864 19.1839 -12.0226 -36.7212 0.0162998 3.62507 -0.510177 -2.52855e-10 -2.8259e-10 1.87211e-10 -4.36613e-10 -4.8587e-10 3.2745e-10 -2.52863e-10 -2.82595e-10 1.87236e-10 -7.73091 5.47488 -0.417314 -2.52857e-10 -2.82597e-10 1.87214e-10 -2.90554 0.965183 -0.102902 -2.52864e-10 -2.82594e-10 1.87211e-10 -10.2786 0.731801 -0.0259123 -2.52849e-10 -2.82592e-10 1.87206e-10 -2.22167 -0.733487 0.20892 -2.03217e-16 0.0 -3.88251e-19 4.13723 -28.9039 21.6305 -0.0701291 24.8946 0.418912 -16.0967 -14.6081 -41.5287 2.03217e-16 0.0 3.88251e-19 -11.1492 8.6333 -17.9362 0.0255875 10.0394 -0.191951 5.28571 -12.2889 17.1218
60.3081 85.4969 19.0059 4.3894 6.4797 -0.0824 -3.84034 3.60514 -2.50776 2.73037 -8.09475 -0.50764 -5.03342 8.15068 -2.79374 5.55541 -19.1857 -3.90375 -0.0 0.0 0.0 -0.0 0.0 0.0 -1.4871e-13 2.86772e-14 -5.12926e-14 82.6359 24.6075 -15.1 -13.6786 -6.69788 24.91 -0.444519 18.6086 2.71231 6.97332e-10 -7.25298e-10 5.36316e-10 1.21052e-09 -1.24902e-09 9.13987e-10 6.97331e-10 -7.25295e-10 5.36309e-10 7.73091 5.47488 0.417314 6.97326e-10 -7.25289e-10 5.36319e-10 2.90554 0.965183 0.102902 6.97338e-10 -7.25295e-10 5.36321e-10 10.2786 0.731801 0.0259123 6.97327e-10 -7.25294e-10 5.36332e-10 2.22167 -0.733487 -0.20892 -1.4889e-13 2.86718e-14 -5.1771e-14 -78.5227 31.2407 -6.07695 19.4972 -12.3985 -37.4533 0.0129187 3.23284 -0.454846 6.88597e-10 2.15336e-09 6.24891e-10 1.19037e-09 3.72019e-09 1.07999e-09 6.88584e-10 2.15335e-09 6.24918e-10 -7.73091 5.47488 -0.417314 6.88593e-10 2.15335e-09 6.24894e-10 -2.90554 0.965183 -0.102902 6.88585e-10 2.15336e-09 6.24891e-10 -10.2786 0.731801 -0.0259123 6.88602e-10 2.15336e-09 6.24882e-10 -2.22167 -0.733487 0.20892 -2.03217e-16 0.0 -3.88251e-19 4.40361 -28.5962 25.2157 -0.0540521 23.8751 0.463856 -18.9763 -16.2772 -44.1999 2.03217e-16 0.0 3.88251e-19 -11.1901 9.26718 -17.6531 0.0214472 9.35617 -0.174467 5.00004 -11.7043 16.7675
60.2911 85.447 19.9572 4.5262 6.5384 -0.0334 -4.24154 3.26788 -2.53856 2.71497 -8.11181 -0.519834 -5.02735 8.08056 -2.88868 5.4206 -18.8068 -4.12615 -0.0 0.0 0.0 -0.0 0.0 0.0 -2.64882e-13 9.56261e-15 -1.31171e-13 82.7904 24.6128 -15.3713 -13.6529 -6.6777 24.8585 -0.453469 18.7882 2.74045 1.05441e-09 -1.48666e-09 1.37543e-09 1.8375e-09 -2.56761e-09 2.35809e-09 1.05441e-09 -1.48665e-09 1.37543e-09 7.73091 5.47488 0.417314 1.05441e-09 -1.48665e-09 1.37543e-09 2.90554 0.965183 0.102902 1.05442e-09 -1.48665e-09 1.37544e-09 10.2786 0.731801 0.0259123 1.05441e-09 -1.48665e-09 1.37545e-09 2.22167 -0.733487 -0.20892 -2.65033e-13 9.55752e-15 -1.31635e-13 -78.8363 31.7916 -5.59037 19.7926 -12.7575 -38.1649 0.0101036 2.87385 -0.404236 1.54512e-09 4.29621e-09 1.03115e-09 2.67054e-09 7.41972e-09 1.77846e-09 1.5451e-09 4.2962e-09 1.03118e-09 -7.73091 5.47488 -0.417314 1.54511e-09 4.2962e-09 1.03116e-09 -2.90554 0.965183 -0.102902 1.5451e-09 4.29621e-09 1.03115e-09 -10.2786 0.731801 -0.0259123 1.54512e-09 4.29621e-09 1.03114e-09 -2.22167 -0.733487 0.20892 -2.03217e-16 0.0 -3.88251e-19 4.66634 -28.2039 28.7305 -0.0384296 23.0452 0.517354 -22.0442 -17.8295 -46.8428 2.03217e-16 0.0 3.88251e-19 -11.22 9.86348 -17.3585 0.0177338 8.76807 -0.159905 4.71106 -11.1 16.3932
60.2333 85.3638 20.7576 4.6429 6.9229 0.2562 -4.49972 3.00148 -2.5826 2.70873 -8.1165 -0.533369 -5.04109 8.01517 -2.96802 5.34236 -18.444 -4.30474 -0.0 0.0 0.0 -0.0 0.0 0.0 -3.18e-13 -5.56403e-15 -1.49238e-13 82.9066 24.6162 -15.589 -13.6229 -6.65412 24.7984 -0.461027 18.9369 2.76382 1.09749e-09 -1.83871e-09 1.87971e-09 1.91834e-09 -3.17977e-09 3.22893e-09 1.09748e-09 -1.83871e-09 1.87971e-09 7.73091 5.47488 0.417314 1.09748e-09 -1.8387e-09 1.87972e-09 2.90554 0.965183 0.102902 1.0975e-09 -1.8387e-09 1.87972e-09 10.2786 0.731801 0.0259123 1.09749e-09 -1.8387e-09 1.87974e-09 2.22167 -0.733487 -0.20892 -3.18132e-13 -5.56849e-15 -1.49685e-13 -79.1259 32.2622 -5.16951 20.024 -13.0421 -38.7384 0.00794093 2.54349 -0.357701 1.90213e-09 5.07514e-09 1.22518e-09 3.28738e-09 8.76359e-09 2.11192e-09 1.90211e-09 5.07512e-09 1.22521e-09 -7.73091 5.47488 -0.417314 1.90213e-09 5.07512e-09 1.22518e-09 -2.90554 0.965183 -0.102902 1.90212e-09 5.07513e-09 1.22518e-09 -10.2786 0.731801 -0.0259123 1.90214e-09 5.07513e-09 1.22516e-09 -2.22167 -0.733487 0.20892 -2.03217e-16 0.0 -3.88251e-19 4.98593 -27.7026 31.7702 -0.0245147 22.3276 0.562126 -24.8456 -19.099 -49.1131 2.03217e-16 0.0 3.88251e-19 -11.1182 10.3988 -17.103 0.0157913 8.41813 -0.14986 4.47312 -10.656 15.9995
